<svg width="125" height="22" viewBox="0 0 125 22" fill="none" xmlns="http://www.w3.org/2000/svg">
<path d="M17.3574 19.9238L13.498 20.5078C13.2272 19.6445 12.9564 18.7897 12.6855 17.9434C12.4147 17.0801 12.1523 16.2168 11.8984 15.3535L5.65234 15.582L4.86523 18.959H0.955078C1.19206 16.0814 1.4375 13.2207 1.69141 10.377C1.94531 7.5332 2.19076 4.68099 2.42773 1.82031C3.64648 1.61719 4.85677 1.44792 6.05859 1.3125C7.27734 1.17708 8.50456 1.10938 9.74023 1.10938C11.2467 1.10938 12.7533 1.13477 14.2598 1.18555C14.5306 2.94596 14.793 4.70638 15.0469 6.4668C15.3177 8.21029 15.597 9.96224 15.8848 11.7227C16.0879 13.1107 16.3079 14.4818 16.5449 15.8359C16.7988 17.1901 17.0697 18.5527 17.3574 19.9238ZM11.0098 11.9004C10.9928 11.748 10.9505 11.4688 10.8828 11.0625C10.8151 10.6393 10.7389 10.1992 10.6543 9.74219C10.5697 9.26823 10.4681 8.84505 10.3496 8.47266C10.248 8.08333 10.1465 7.85482 10.0449 7.78711C10.0111 7.77018 9.92643 7.75326 9.79102 7.73633C9.67253 7.7194 9.53711 7.70247 9.38477 7.68555C9.24935 7.66862 9.11393 7.66016 8.97852 7.66016C8.8431 7.66016 8.75 7.66016 8.69922 7.66016C8.61458 7.66016 8.49609 7.66016 8.34375 7.66016C8.20833 7.66016 8.05599 7.66862 7.88672 7.68555C7.73438 7.68555 7.58203 7.70247 7.42969 7.73633C7.29427 7.77018 7.20117 7.8125 7.15039 7.86328C7.11654 7.88021 7.07422 7.99023 7.02344 8.19336C6.97266 8.39648 6.90495 8.65039 6.82031 8.95508C6.7526 9.24284 6.67643 9.55599 6.5918 9.89453C6.52409 10.2331 6.45638 10.5547 6.38867 10.8594C6.32096 11.1641 6.26172 11.4264 6.21094 11.6465C6.17708 11.8665 6.15169 11.9935 6.13477 12.0273L11.0098 11.9004ZM39.8393 20.4316C39.5177 20.4147 39.2045 20.3893 38.8998 20.3555C38.6459 20.3216 38.392 20.2962 38.1381 20.2793C37.9011 20.2624 37.7234 20.2539 37.6049 20.2539C36.9448 20.2539 36.2846 20.2624 35.6245 20.2793C34.9643 20.3132 34.3126 20.3639 33.6694 20.4316C33.6863 19.7207 33.6948 19.0267 33.6948 18.3496C33.7117 17.6556 33.7202 16.9531 33.7202 16.2422C33.7202 14.9727 33.6948 13.7116 33.644 12.459C33.6101 11.2064 33.5763 9.95378 33.5424 8.70117L28.2104 20.7617C27.4317 18.6458 26.5939 16.5723 25.6967 14.541C24.8165 12.4928 23.894 10.4531 22.9291 8.42188L23.3354 20.9648C23.1492 20.9648 22.9545 20.9564 22.7514 20.9395C22.5652 20.9395 22.3705 20.9395 22.1674 20.9395C21.5242 20.9395 20.8894 20.9648 20.2631 21.0156C19.6537 21.0664 19.0359 21.1172 18.4096 21.168C18.4942 19.5938 18.5789 18.028 18.6635 16.4707C18.7482 14.9134 18.7905 13.3477 18.7905 11.7734C18.7905 9.92839 18.7735 8.0918 18.7397 6.26367C18.7228 4.43555 18.7058 2.59896 18.6889 0.753906C19.9077 0.753906 21.0926 0.720052 22.2436 0.652344C23.4116 0.584635 24.6049 0.491536 25.8237 0.373047C26.2299 1.72721 26.6446 3.07292 27.0678 4.41016C27.5079 5.73047 27.9734 7.05078 28.4643 8.37109C28.989 7.11849 29.5815 5.89128 30.2416 4.68945C30.9187 3.48763 31.6043 2.29427 32.2983 1.10938C33.4493 1.07552 34.5834 1.04167 35.7006 1.00781C36.8347 0.973958 37.9773 0.948568 39.1284 0.931641C39.1791 2.45508 39.2384 3.96159 39.3061 5.45117C39.3907 6.94076 39.4669 8.44727 39.5346 9.9707C39.5854 11.1725 39.6277 12.3743 39.6616 13.5762C39.7123 14.778 39.7547 15.9714 39.7885 17.1562L39.8393 19.2891V20.4316ZM58.4618 19.9238L54.6024 20.5078C54.3316 19.6445 54.0608 18.7897 53.7899 17.9434C53.5191 17.0801 53.2567 16.2168 53.0028 15.3535L46.7567 15.582L45.9696 18.959H42.0595C42.2964 16.0814 42.5419 13.2207 42.7958 10.377C43.0497 7.5332 43.2951 4.68099 43.5321 1.82031C44.7509 1.61719 45.9611 1.44792 47.163 1.3125C48.3817 1.17708 49.6089 1.10938 50.8446 1.10938C52.3511 1.10938 53.8576 1.13477 55.3641 1.18555C55.635 2.94596 55.8973 4.70638 56.1512 6.4668C56.4221 8.21029 56.7014 9.96224 56.9891 11.7227C57.1923 13.1107 57.4123 14.4818 57.6493 15.8359C57.9032 17.1901 58.174 18.5527 58.4618 19.9238ZM52.1141 11.9004C52.0972 11.748 52.0549 11.4688 51.9872 11.0625C51.9195 10.6393 51.8433 10.1992 51.7587 9.74219C51.674 9.26823 51.5725 8.84505 51.454 8.47266C51.3524 8.08333 51.2509 7.85482 51.1493 7.78711C51.1154 7.77018 51.0308 7.75326 50.8954 7.73633C50.7769 7.7194 50.6415 7.70247 50.4891 7.68555C50.3537 7.66862 50.2183 7.66016 50.0829 7.66016C49.9475 7.66016 49.8544 7.66016 49.8036 7.66016C49.719 7.66016 49.6005 7.66016 49.4481 7.66016C49.3127 7.66016 49.1604 7.66862 48.9911 7.68555C48.8387 7.68555 48.6864 7.70247 48.5341 7.73633C48.3986 7.77018 48.3055 7.8125 48.2548 7.86328C48.2209 7.88021 48.1786 7.99023 48.1278 8.19336C48.077 8.39648 48.0093 8.65039 47.9247 8.95508C47.857 9.24284 47.7808 9.55599 47.6962 9.89453C47.6285 10.2331 47.5608 10.5547 47.493 10.8594C47.4253 11.1641 47.3661 11.4264 47.3153 11.6465C47.2815 11.8665 47.2561 11.9935 47.2391 12.0273L52.1141 11.9004ZM73.4027 5.22266V7L68.5023 7.25391C68.4346 8.23568 68.3838 9.20898 68.3499 10.1738C68.3161 11.1387 68.2991 12.1035 68.2991 13.0684C68.2991 14.2533 68.2653 15.4382 68.1976 16.623C68.1468 17.791 68.0791 18.959 67.9945 20.127C67.3851 20.1608 66.7757 20.1862 66.1663 20.2031C65.557 20.237 64.9476 20.2539 64.3382 20.2539C64.1182 20.2539 63.8981 20.2454 63.678 20.2285C63.4749 20.2285 63.2718 20.2285 63.0687 20.2285C63.1025 19.196 63.1279 18.1719 63.1448 17.1562C63.1787 16.1237 63.1956 15.0996 63.1956 14.084C63.1956 13.0684 63.1702 12.0527 63.1195 11.0371C63.0687 10.0046 63.0094 8.97201 62.9417 7.93945C62.4508 7.95638 61.9515 7.97331 61.4437 7.99023C60.9528 8.00716 60.4534 8.01562 59.9456 8.01562C59.6579 8.01562 59.3701 8.01562 59.0823 8.01562C58.8115 8.01562 58.5322 8.00716 58.2445 7.99023C58.1937 6.73763 58.1598 5.49349 58.1429 4.25781C58.126 3.02214 58.109 1.78646 58.0921 0.550781C60.6312 0.601562 63.1533 0.677734 65.6585 0.779297C68.1637 0.863932 70.6774 0.940104 73.1995 1.00781C73.2672 1.73568 73.318 2.44661 73.3519 3.14062C73.3857 3.81771 73.4027 4.51172 73.4027 5.22266ZM88.9021 4.53711C87.2433 4.62174 85.5929 4.71484 83.9509 4.81641C82.3259 4.90104 80.684 5.01107 79.0252 5.14648L78.9744 7.15234L85.5252 6.77148C85.6098 7.34701 85.669 7.91406 85.7029 8.47266C85.7537 9.03125 85.7791 9.59831 85.7791 10.1738C85.7791 10.4108 85.7706 10.6562 85.7537 10.9102C85.7537 11.1641 85.7537 11.4095 85.7537 11.6465L79.6599 12.7383L80.0408 15.8867C81.3272 15.8021 82.6052 15.6836 83.8748 15.5312C85.1612 15.362 86.4561 15.2181 87.7595 15.0996C87.878 15.946 87.9965 16.8008 88.115 17.6641C88.2335 18.5104 88.4028 19.3398 88.6228 20.1523C86.2192 20.1354 83.8324 20.1354 81.4627 20.1523C79.0929 20.1862 76.7061 20.2031 74.3025 20.2031C74.3533 18.2227 74.4125 16.2507 74.4802 14.2871C74.5479 12.3236 74.5818 10.3431 74.5818 8.3457V7.86328C74.5818 6.71224 74.5649 5.56966 74.531 4.43555C74.4972 3.28451 74.4633 2.125 74.4295 0.957031C75.7667 0.973958 77.0955 0.982422 78.4158 0.982422C79.753 0.965495 81.0987 0.957031 82.4529 0.957031C83.4854 0.957031 84.5095 0.982422 85.5252 1.0332C86.5577 1.06706 87.5903 1.10938 88.6228 1.16016L88.9021 4.53711ZM108.997 19.873C108.185 20.0592 107.372 20.2285 106.56 20.3809C105.764 20.5501 104.952 20.7025 104.122 20.8379C103.107 19.2975 102.099 17.7826 101.101 16.293C100.119 14.7865 99.0949 13.2884 98.0285 11.7988L95.3117 14.4395L95.0578 20.0762C94.6685 20.0592 94.2792 20.0423 93.8898 20.0254C93.5175 20.0254 93.1451 20.0254 92.7727 20.0254C92.4172 20.0254 92.0702 20.0339 91.7316 20.0508C91.3931 20.0677 91.0546 20.1016 90.716 20.1523C90.5129 18.5951 90.3182 17.0462 90.132 15.5059C89.9628 13.9486 89.8104 12.3828 89.675 10.8086C89.5396 9.23438 89.4296 7.66862 89.3449 6.11133C89.2772 4.53711 89.2095 2.96289 89.1418 1.38867C90.4113 1.42253 91.6639 1.44792 92.8996 1.46484C94.1522 1.46484 95.4133 1.48177 96.6828 1.51562L96.5305 7.40625C97.4445 6.45833 98.3078 5.49349 99.1203 4.51172C99.9328 3.52995 100.771 2.53125 101.634 1.51562C102.446 1.46484 103.267 1.41406 104.097 1.36328C104.926 1.29557 105.747 1.22786 106.56 1.16016L106.458 3.03906L101.075 8.65039C102.362 10.5632 103.657 12.4421 104.96 14.2871C106.28 16.1322 107.626 17.9941 108.997 19.873ZM124.624 19.9238L120.764 20.5078C120.493 19.6445 120.223 18.7897 119.952 17.9434C119.681 17.0801 119.419 16.2168 119.165 15.3535L112.919 15.582L112.131 18.959H108.221C108.458 16.0814 108.704 13.2207 108.958 10.377C109.212 7.5332 109.457 4.68099 109.694 1.82031C110.913 1.61719 112.123 1.44792 113.325 1.3125C114.544 1.17708 115.771 1.10938 117.006 1.10938C118.513 1.10938 120.02 1.13477 121.526 1.18555C121.797 2.94596 122.059 4.70638 122.313 6.4668C122.584 8.21029 122.863 9.96224 123.151 11.7227C123.354 13.1107 123.574 14.4818 123.811 15.8359C124.065 17.1901 124.336 18.5527 124.624 19.9238ZM118.276 11.9004C118.259 11.748 118.217 11.4688 118.149 11.0625C118.081 10.6393 118.005 10.1992 117.921 9.74219C117.836 9.26823 117.734 8.84505 117.616 8.47266C117.514 8.08333 117.413 7.85482 117.311 7.78711C117.277 7.77018 117.193 7.75326 117.057 7.73633C116.939 7.7194 116.803 7.70247 116.651 7.68555C116.516 7.66862 116.38 7.66016 116.245 7.66016C116.109 7.66016 116.016 7.66016 115.965 7.66016C115.881 7.66016 115.762 7.66016 115.61 7.66016C115.475 7.66016 115.322 7.66862 115.153 7.68555C115.001 7.68555 114.848 7.70247 114.696 7.73633C114.561 7.77018 114.467 7.8125 114.417 7.86328C114.383 7.88021 114.34 7.99023 114.29 8.19336C114.239 8.39648 114.171 8.65039 114.087 8.95508C114.019 9.24284 113.943 9.55599 113.858 9.89453C113.79 10.2331 113.723 10.5547 113.655 10.8594C113.587 11.1641 113.528 11.4264 113.477 11.6465C113.443 11.8665 113.418 11.9935 113.401 12.0273L118.276 11.9004Z" fill="#8e2c0b"/>
</svg>
