<svg width="32" height="32" viewBox="0 0 32 32" fill="none" xmlns="http://www.w3.org/2000/svg">
<path d="M11.7778 32C10.2667 32 8.98519 31.437 7.93333 30.3111C6.88148 29.1852 6.28148 27.9111 6.13333 26.4889C4.38519 26.3407 2.92593 25.6074 1.75556 24.2889C0.585185 22.9704 0 21.363 0 19.4667C0 18.8148 0.0814815 18.1852 0.244444 17.5778C0.407407 16.9704 0.651852 16.3852 0.977778 15.8222C0.651852 15.2889 0.407407 14.7259 0.244444 14.1333C0.0814815 13.5407 0 12.9037 0 12.2222C0 10.4444 0.614815 8.91852 1.84444 7.64444C3.07407 6.37037 4.53333 5.62963 6.22222 5.42222C6.28148 3.91111 6.85185 2.62963 7.93333 1.57778C9.01482 0.525926 10.3111 0 11.8222 0C12.6815 0 13.4444 0.155556 14.1111 0.466667C14.7778 0.777778 15.4074 1.22963 16 1.82222C16.5926 1.22963 17.2148 0.777778 17.8667 0.466667C18.5185 0.155556 19.2741 0 20.1333 0C21.6148 0 22.8889 0.525926 23.9556 1.57778C25.0222 2.62963 25.6 3.91111 25.6889 5.42222C27.4074 5.57037 28.8889 6.28889 30.1333 7.57778C31.3778 8.86667 32 10.4148 32 12.2222C32 12.9037 31.9111 13.5481 31.7333 14.1556C31.5556 14.763 31.3037 15.3333 30.9778 15.8667C31.3037 16.4593 31.5556 17.0815 31.7333 17.7333C31.9111 18.3852 32 19.0222 32 19.6444C32 21.5407 31.4148 23.1185 30.2444 24.3778C29.0741 25.637 27.6148 26.3407 25.8667 26.4889C25.7185 27.9111 25.1111 29.1852 24.0444 30.3111C22.9778 31.437 21.7037 32 20.2222 32C19.3333 32 18.563 31.8519 17.9111 31.5556C17.2593 31.2593 16.6222 30.8148 16 30.2222C15.3778 30.8148 14.7407 31.2593 14.0889 31.5556C13.437 31.8519 12.6667 32 11.7778 32ZM17.3333 5.33333V26.6667C17.3333 27.4074 17.6222 28.037 18.2 28.5556C18.7778 29.0741 19.4667 29.3333 20.2667 29.3333C21.037 29.3333 21.7037 28.9926 22.2667 28.3111C22.8296 27.6296 23.1407 26.9333 23.2 26.2222C22.5185 25.9852 21.8815 25.6667 21.2889 25.2667C20.6963 24.8667 20.1926 24.3704 19.7778 23.7778C19.5407 23.4519 19.4519 23.1185 19.5111 22.7778C19.5704 22.437 19.763 22.1481 20.0889 21.9111C20.4148 21.6741 20.7481 21.5852 21.0889 21.6444C21.4296 21.7037 21.7185 21.8963 21.9556 22.2222C22.3407 22.7556 22.8148 23.163 23.3778 23.4444C23.9407 23.7259 24.563 23.8667 25.2444 23.8667C26.3704 23.8667 27.3333 23.4815 28.1333 22.7111C28.9333 21.9407 29.3333 20.9185 29.3333 19.6444C29.3333 19.3778 29.3037 19.1037 29.2444 18.8222C29.1852 18.5407 29.1259 18.2519 29.0667 17.9556C28.5333 18.3407 27.9481 18.6296 27.3111 18.8222C26.6741 19.0148 26.0148 19.1111 25.3333 19.1111C24.9481 19.1111 24.6296 18.9852 24.3778 18.7333C24.1259 18.4815 24 18.163 24 17.7778C24 17.3926 24.1259 17.0741 24.3778 16.8222C24.6296 16.5704 24.9481 16.4444 25.3333 16.4444C26.4593 16.4444 27.4074 16.0296 28.1778 15.2C28.9481 14.3704 29.3333 13.3778 29.3333 12.2222C29.3333 11.0963 28.9185 10.1333 28.0889 9.33333C27.2593 8.53333 26.3111 8.1037 25.2444 8.04444C24.9481 8.75556 24.5259 9.38519 23.9778 9.93333C23.4296 10.4815 22.8 10.8889 22.0889 11.1556C21.7333 11.3037 21.3926 11.2963 21.0667 11.1333C20.7407 10.9704 20.5185 10.7111 20.4 10.3556C20.2815 10 20.2963 9.65185 20.4444 9.31111C20.5926 8.97037 20.8444 8.74074 21.2 8.62222C21.7333 8.44444 22.1704 8.08889 22.5111 7.55556C22.8519 7.02222 23.0222 6.41481 23.0222 5.73333C23.0222 4.87407 22.7407 4.14815 22.1778 3.55556C21.6148 2.96296 20.9481 2.66667 20.1778 2.66667C19.4074 2.66667 18.7407 2.92593 18.1778 3.44444C17.6148 3.96296 17.3333 4.59259 17.3333 5.33333ZM14.6667 26.6667V5.33333C14.6667 4.59259 14.3926 3.96296 13.8444 3.44444C13.2963 2.92593 12.6222 2.66667 11.8222 2.66667C11.0519 2.66667 10.3778 2.96296 9.8 3.55556C9.22222 4.14815 8.93333 4.87407 8.93333 5.73333C8.93333 6.41481 9.0963 7.01481 9.42222 7.53333C9.74815 8.05185 10.1778 8.4 10.7111 8.57778C11.0667 8.6963 11.3259 8.92593 11.4889 9.26667C11.6519 9.60741 11.6741 9.94074 11.5556 10.2667C11.4074 10.6222 11.163 10.8889 10.8222 11.0667C10.4815 11.2444 10.1333 11.2593 9.77778 11.1111C9.06667 10.8741 8.44444 10.4815 7.91111 9.93333C7.37778 9.38519 6.96296 8.75556 6.66667 8.04444C5.62963 8.13333 4.7037 8.57037 3.88889 9.35556C3.07407 10.1407 2.66667 11.0963 2.66667 12.2222C2.66667 13.3778 3.05185 14.3704 3.82222 15.2C4.59259 16.0296 5.54074 16.4444 6.66667 16.4444C7.05185 16.4444 7.37037 16.5704 7.62222 16.8222C7.87407 17.0741 8 17.3926 8 17.7778C8 18.163 7.87407 18.4815 7.62222 18.7333C7.37037 18.9852 7.05185 19.1111 6.66667 19.1111C5.98519 19.1111 5.32593 19.0074 4.68889 18.8C4.05185 18.5926 3.46667 18.3111 2.93333 17.9556C2.84444 18.1926 2.77778 18.4444 2.73333 18.7111C2.68889 18.9778 2.66667 19.2444 2.66667 19.5111C2.66667 20.7852 3.05926 21.8296 3.84444 22.6444C4.62963 23.4593 5.58519 23.8667 6.71111 23.8667C7.36296 23.8667 7.97778 23.7185 8.55556 23.4222C9.13333 23.1259 9.61482 22.7259 10 22.2222C10.237 21.9259 10.5333 21.7407 10.8889 21.6667C11.2444 21.5926 11.5704 21.6741 11.8667 21.9111C12.163 22.1481 12.3481 22.4444 12.4222 22.8C12.4963 23.1556 12.4148 23.4815 12.1778 23.7778C11.763 24.3704 11.2667 24.8667 10.6889 25.2667C10.1111 25.6667 9.48148 25.9852 8.8 26.2222C8.85926 26.9333 9.17037 27.6296 9.73333 28.3111C10.2963 28.9926 10.9778 29.3333 11.7778 29.3333C12.5778 29.3333 13.2593 29.0741 13.8222 28.5556C14.3852 28.037 14.6667 27.4074 14.6667 26.6667Z" fill="#212121"/>
</svg>
