<svg width="36" height="36" viewBox="0 0 36 36" fill="none" xmlns="http://www.w3.org/2000/svg">
    <path
        d="M13.25 36C11.55 36 10.1083 35.3667 8.925 34.1C7.74167 32.8333 7.06667 31.4 6.9 29.8C4.93333 29.6333 3.29167 28.8083 1.975 27.325C0.658333 25.8417 0 24.0333 0 21.9C0 21.1667 0.0916667 20.4583 0.275 19.775C0.458333 19.0917 0.733333 18.4333 1.1 17.8C0.733333 17.2 0.458333 16.5667 0.275 15.9C0.0916667 15.2333 0 14.5167 0 13.75C0 11.75 0.691667 10.0333 2.075 8.6C3.45833 7.16667 5.1 6.33333 7 6.1C7.06667 4.4 7.70833 2.95833 8.925 1.775C10.1417 0.591667 11.6 0 13.3 0C14.2667 0 15.125 0.175 15.875 0.525C16.625 0.875 17.3333 1.38333 18 2.05C18.6667 1.38333 19.3667 0.875 20.1 0.525C20.8333 0.175 21.6833 0 22.65 0C24.3167 0 25.75 0.591667 26.95 1.775C28.15 2.95833 28.8 4.4 28.9 6.1C30.8333 6.26667 32.5 7.075 33.9 8.525C35.3 9.975 36 11.7167 36 13.75C36 14.5167 35.9 15.2417 35.7 15.925C35.5 16.6083 35.2167 17.25 34.85 17.85C35.2167 18.5167 35.5 19.2167 35.7 19.95C35.9 20.6833 36 21.4 36 22.1C36 24.2333 35.3417 26.0083 34.025 27.425C32.7083 28.8417 31.0667 29.6333 29.1 29.8C28.9333 31.4 28.25 32.8333 27.05 34.1C25.85 35.3667 24.4167 36 22.75 36C21.75 36 20.8833 35.8333 20.15 35.5C19.4167 35.1667 18.7 34.6667 18 34C17.3 34.6667 16.5833 35.1667 15.85 35.5C15.1167 35.8333 14.25 36 13.25 36ZM19.5 6V30C19.5 30.8333 19.825 31.5417 20.475 32.125C21.125 32.7083 21.9 33 22.8 33C23.6667 33 24.4167 32.6167 25.05 31.85C25.6833 31.0833 26.0333 30.3 26.1 29.5C25.3333 29.2333 24.6167 28.875 23.95 28.425C23.2833 27.975 22.7167 27.4167 22.25 26.75C21.9833 26.3833 21.8833 26.0083 21.95 25.625C22.0167 25.2417 22.2333 24.9167 22.6 24.65C22.9667 24.3833 23.3417 24.2833 23.725 24.35C24.1083 24.4167 24.4333 24.6333 24.7 25C25.1333 25.6 25.6667 26.0583 26.3 26.375C26.9333 26.6917 27.6333 26.85 28.4 26.85C29.6667 26.85 30.75 26.4167 31.65 25.55C32.55 24.6833 33 23.5333 33 22.1C33 21.8 32.9667 21.4917 32.9 21.175C32.8333 20.8583 32.7667 20.5333 32.7 20.2C32.1 20.6333 31.4417 20.9583 30.725 21.175C30.0083 21.3917 29.2667 21.5 28.5 21.5C28.0667 21.5 27.7083 21.3583 27.425 21.075C27.1417 20.7917 27 20.4333 27 20C27 19.5667 27.1417 19.2083 27.425 18.925C27.7083 18.6417 28.0667 18.5 28.5 18.5C29.7667 18.5 30.8333 18.0333 31.7 17.1C32.5667 16.1667 33 15.05 33 13.75C33 12.4833 32.5333 11.4 31.6 10.5C30.6667 9.6 29.6 9.11667 28.4 9.05C28.0667 9.85 27.5917 10.5583 26.975 11.175C26.3583 11.7917 25.65 12.25 24.85 12.55C24.45 12.7167 24.0667 12.7083 23.7 12.525C23.3333 12.3417 23.0833 12.05 22.95 11.65C22.8167 11.25 22.8333 10.8583 23 10.475C23.1667 10.0917 23.45 9.83333 23.85 9.7C24.45 9.5 24.9417 9.1 25.325 8.5C25.7083 7.9 25.9 7.21667 25.9 6.45C25.9 5.48333 25.5833 4.66667 24.95 4C24.3167 3.33333 23.5667 3 22.7 3C21.8333 3 21.0833 3.29167 20.45 3.875C19.8167 4.45833 19.5 5.16667 19.5 6ZM16.5 30V6C16.5 5.16667 16.1917 4.45833 15.575 3.875C14.9583 3.29167 14.2 3 13.3 3C12.4333 3 11.675 3.33333 11.025 4C10.375 4.66667 10.05 5.48333 10.05 6.45C10.05 7.21667 10.2333 7.89167 10.6 8.475C10.9667 9.05833 11.45 9.45 12.05 9.65C12.45 9.78333 12.7417 10.0417 12.925 10.425C13.1083 10.8083 13.1333 11.1833 13 11.55C12.8333 11.95 12.5583 12.25 12.175 12.45C11.7917 12.65 11.4 12.6667 11 12.5C10.2 12.2333 9.5 11.7917 8.9 11.175C8.3 10.5583 7.83333 9.85 7.5 9.05C6.33333 9.15 5.29167 9.64167 4.375 10.525C3.45833 11.4083 3 12.4833 3 13.75C3 15.05 3.43333 16.1667 4.3 17.1C5.16667 18.0333 6.23333 18.5 7.5 18.5C7.93333 18.5 8.29167 18.6417 8.575 18.925C8.85833 19.2083 9 19.5667 9 20C9 20.4333 8.85833 20.7917 8.575 21.075C8.29167 21.3583 7.93333 21.5 7.5 21.5C6.73333 21.5 5.99167 21.3833 5.275 21.15C4.55833 20.9167 3.9 20.6 3.3 20.2C3.2 20.4667 3.125 20.75 3.075 21.05C3.025 21.35 3 21.65 3 21.95C3 23.3833 3.44167 24.5583 4.325 25.475C5.20833 26.3917 6.28333 26.85 7.55 26.85C8.28333 26.85 8.975 26.6833 9.625 26.35C10.275 26.0167 10.8167 25.5667 11.25 25C11.5167 24.6667 11.85 24.4583 12.25 24.375C12.65 24.2917 13.0167 24.3833 13.35 24.65C13.6833 24.9167 13.8917 25.25 13.975 25.65C14.0583 26.05 13.9667 26.4167 13.7 26.75C13.2333 27.4167 12.675 27.975 12.025 28.425C11.375 28.875 10.6667 29.2333 9.9 29.5C9.96667 30.3 10.3167 31.0833 10.95 31.85C11.5833 32.6167 12.35 33 13.25 33C14.15 33 14.9167 32.7083 15.55 32.125C16.1833 31.5417 16.5 30.8333 16.5 30Z"
        fill="#231007" />
</svg>