<svg width="32" height="18" viewBox="0 0 32 18" fill="none" xmlns="http://www.w3.org/2000/svg">
<path d="M1.32556 18C0.945555 18 0.62963 17.8699 0.377778 17.6096C0.125926 17.3493 0 17.0268 0 16.6421C0 16.2574 0.128519 15.9375 0.385556 15.6825C0.642622 15.4275 0.961141 15.3 1.34111 15.3C1.72111 15.3 2.03704 15.4301 2.28889 15.6904C2.54074 15.9507 2.66667 16.2732 2.66667 16.6579C2.66667 17.0426 2.53815 17.3625 2.28111 17.6175C2.02404 17.8725 1.70553 18 1.32556 18ZM1.32556 10.35C0.945555 10.35 0.62963 10.2199 0.377778 9.95963C0.125926 9.69935 0 9.37685 0 8.99213C0 8.60738 0.128519 8.2875 0.385556 8.0325C0.642622 7.7775 0.961141 7.65 1.34111 7.65C1.72111 7.65 2.03704 7.78012 2.28889 8.04037C2.54074 8.30065 2.66667 8.62315 2.66667 9.00787C2.66667 9.39262 2.53815 9.7125 2.28111 9.9675C2.02404 10.2225 1.70553 10.35 1.32556 10.35ZM1.32556 2.7C0.945555 2.7 0.62963 2.56988 0.377778 2.30963C0.125926 2.04935 0 1.72685 0 1.34213C0 0.957376 0.128519 0.6375 0.385556 0.3825C0.642622 0.1275 0.961141 0 1.34111 0C1.72111 0 2.03704 0.130124 2.28889 0.390374C2.54074 0.650654 2.66667 0.973154 2.66667 1.35787C2.66667 1.74262 2.53815 2.0625 2.28111 2.3175C2.02404 2.5725 1.70553 2.7 1.32556 2.7ZM7.55556 18V15.3H32V18H7.55556ZM7.55556 10.35V7.65H32V10.35H7.55556ZM7.55556 2.7V0H32V2.7H7.55556Z" fill="#212121"/>
</svg>
