<svg width="36" height="36" viewBox="0 0 36 36" fill="none" xmlns="http://www.w3.org/2000/svg">
    <path
        d="M5.20661 36C3.76033 36 2.53099 35.5406 1.51859 34.6219C0.506198 33.7031 0 32.5875 0 31.275V25.65H6.29752V0L9.26281 2.7L12.2281 0L15.1934 2.7L18.1587 0L21.124 2.7L24.0992 0L27.0744 2.7L30.0496 0L33.0248 2.7L36 0V31.275C36 32.5875 35.4938 33.7031 34.4814 34.6219C33.469 35.5406 32.2397 36 30.7934 36H5.20661ZM30.7934 33.3C31.4545 33.3 31.9917 33.1125 32.405 32.7375C32.8182 32.3625 33.0248 31.875 33.0248 31.275V4.5H9.27273V25.65H28.562V31.275C28.562 31.875 28.7686 32.3625 29.1818 32.7375C29.595 33.1125 30.1322 33.3 30.7934 33.3ZM11.9008 11.61V8.91H23.8017V11.61H11.9008ZM11.9008 17.64V14.94H23.8017V17.64H11.9008ZM28.4132 11.61C28.0165 11.61 27.6694 11.475 27.3719 11.205C27.0744 10.935 26.9256 10.62 26.9256 10.26C26.9256 9.9 27.0744 9.585 27.3719 9.315C27.6694 9.045 28.0165 8.91 28.4132 8.91C28.8099 8.91 29.157 9.045 29.4545 9.315C29.7521 9.585 29.9008 9.9 29.9008 10.26C29.9008 10.62 29.7521 10.935 29.4545 11.205C29.157 11.475 28.8099 11.61 28.4132 11.61ZM28.4132 17.415C28.0165 17.415 27.6694 17.28 27.3719 17.01C27.0744 16.74 26.9256 16.425 26.9256 16.065C26.9256 15.705 27.0744 15.39 27.3719 15.12C27.6694 14.85 28.0165 14.715 28.4132 14.715C28.8099 14.715 29.157 14.85 29.4545 15.12C29.7521 15.39 29.9008 15.705 29.9008 16.065C29.9008 16.425 29.7521 16.74 29.4545 17.01C29.157 17.28 28.8099 17.415 28.4132 17.415ZM5.15702 33.3H25.5868V28.35H2.97521V31.275C2.97521 31.875 3.1843 32.3625 3.60248 32.7375C4.02066 33.1125 4.53884 33.3 5.15702 33.3Z"
        fill="#231007" />
</svg>