<svg width="32" height="32" viewBox="0 0 32 32" fill="none" xmlns="http://www.w3.org/2000/svg">
<path d="M4.6281 32C3.34252 32 2.24977 31.5917 1.34986 30.775C0.449954 29.9583 0 28.9667 0 27.8V22.8H5.5978V0L8.23361 2.4L10.8694 0L13.5052 2.4L16.141 0L18.7769 2.4L21.4215 0L24.0661 2.4L26.7107 0L29.3554 2.4L32 0V27.8C32 28.9667 31.55 29.9583 30.6501 30.775C29.7502 31.5917 28.6575 32 27.3719 32H4.6281ZM27.3719 29.6C27.9596 29.6 28.4371 29.4333 28.8044 29.1C29.1717 28.7667 29.3554 28.3333 29.3554 27.8V4H8.24242V22.8H25.3884V27.8C25.3884 28.3333 25.5721 28.7667 25.9394 29.1C26.3067 29.4333 26.7842 29.6 27.3719 29.6ZM10.5785 10.32V7.92H21.157V10.32H10.5785ZM10.5785 15.68V13.28H21.157V15.68H10.5785ZM25.2562 10.32C24.9036 10.32 24.595 10.2 24.3306 9.96C24.0661 9.72 23.9339 9.44 23.9339 9.12C23.9339 8.8 24.0661 8.52 24.3306 8.28C24.595 8.04 24.9036 7.92 25.2562 7.92C25.6088 7.92 25.9174 8.04 26.1818 8.28C26.4463 8.52 26.5785 8.8 26.5785 9.12C26.5785 9.44 26.4463 9.72 26.1818 9.96C25.9174 10.2 25.6088 10.32 25.2562 10.32ZM25.2562 15.48C24.9036 15.48 24.595 15.36 24.3306 15.12C24.0661 14.88 23.9339 14.6 23.9339 14.28C23.9339 13.96 24.0661 13.68 24.3306 13.44C24.595 13.2 24.9036 13.08 25.2562 13.08C25.6088 13.08 25.9174 13.2 26.1818 13.44C26.4463 13.68 26.5785 13.96 26.5785 14.28C26.5785 14.6 26.4463 14.88 26.1818 15.12C25.9174 15.36 25.6088 15.48 25.2562 15.48ZM4.58402 29.6H22.7438V25.2H2.64463V27.8C2.64463 28.3333 2.83049 28.7667 3.2022 29.1C3.57392 29.4333 4.03453 29.6 4.58402 29.6Z" fill="#212121"/>
</svg>
