<svg width="32" height="32" viewBox="0 0 32 32" fill="none" xmlns="http://www.w3.org/2000/svg">
<path d="M20.6032 26.4C19.4274 26.4 18.4362 26.0242 17.6296 25.2727C16.823 24.5211 16.4198 23.6011 16.4198 22.5127C16.4198 21.4242 16.8257 20.5067 17.6375 19.76C18.4494 19.0133 19.4432 18.64 20.619 18.64C21.7948 18.64 22.786 19.0158 23.5926 19.7673C24.3992 20.5189 24.8025 21.4389 24.8025 22.5273C24.8025 23.6158 24.3965 24.5333 23.5847 25.28C22.7728 26.0267 21.779 26.4 20.6032 26.4ZM2.59259 32C1.90123 32 1.2963 31.76 0.777778 31.28C0.259259 30.8 0 30.24 0 29.6V4.8C0 4.16 0.259259 3.6 0.777778 3.12C1.2963 2.64 1.90123 2.4 2.59259 2.4H5.40124V0H8.20988V2.4H22.9012V0H25.7099V2.4H28.5185C29.2099 2.4 29.8148 2.64 30.3333 3.12C30.8519 3.6 31.1111 4.16 31.1111 4.8V29.6C31.1111 30.24 30.8519 30.8 30.3333 31.28C29.8148 31.76 29.2099 32 28.5185 32H2.59259ZM2.59259 29.6H28.5185V12.4H2.59259V29.6ZM2.59259 10H28.5185V4.8H2.59259V10Z" fill="#212121"/>
</svg>
