<svg width="24" height="24" viewBox="0 0 24 24" fill="none" xmlns="http://www.w3.org/2000/svg">
<path d="M21.3333 -1.48482e-06C22.0667 -1.42071e-06 22.6944 0.26111 23.2167 0.783332C23.7389 1.30555 24 1.93333 24 2.66667L24 8L21.3333 8L21.3333 2.66667L2.66667 2.66666L2.66667 21.3333L21.3333 21.3333L21.3333 16L24 16L24 21.3333C24 22.0667 23.7389 22.6944 23.2167 23.2167C22.6944 23.7389 22.0667 24 21.3333 24L2.66667 24C1.93333 24 1.30555 23.7389 0.783332 23.2167C0.26111 22.6944 -1.08268e-06 22.0667 -1.01857e-06 21.3333L6.13322e-07 2.66666C6.77432e-07 1.93333 0.261112 1.30555 0.783334 0.78333C1.30556 0.261108 1.93333 -3.18083e-06 2.66667 -3.11672e-06L21.3333 -1.48482e-06ZM14 5.33333L15.8667 7.26667L12.4667 10.6667L24 10.6667L24 13.3333L12.4667 13.3333L15.8667 16.7333L14 18.6667L7.33333 12L14 5.33333Z" fill="#212121"/>
</svg>
