<svg width="30" height="18" viewBox="0 0 30 18" fill="none" xmlns="http://www.w3.org/2000/svg">
<path d="M1.12499 18C0.503673 18 -7.62939e-06 17.4963 -7.62939e-06 16.875C-7.62939e-06 16.2537 0.503672 15.75 1.12499 15.75H28.875C29.4963 15.75 30 16.2537 30 16.875C30 17.4963 29.4963 18 28.875 18H1.12499ZM1.12499 10.125C0.503673 10.125 -7.62939e-06 9.62132 -7.62939e-06 9C-7.62939e-06 8.37868 0.503672 7.875 1.12499 7.875H28.875C29.4963 7.875 30 8.37868 30 9C30 9.62132 29.4963 10.125 28.875 10.125H1.12499ZM1.12499 2.25C0.503673 2.25 -7.62939e-06 1.74632 -7.62939e-06 1.125C-7.62939e-06 0.50368 0.503672 0 1.12499 0H28.875C29.4963 0 30 0.50368 30 1.125C30 1.74632 29.4963 2.25 28.875 2.25H1.12499Z" fill="#212121"/>
</svg>
