<svg width="33" height="22" viewBox="0 0 33 22" fill="none" xmlns="http://www.w3.org/2000/svg">
    <path
        d="M1.375 22C0.615609 22 0 21.3844 0 20.625V20.625C0 19.8656 0.615609 19.25 1.375 19.25H31.625C32.3844 19.25 33 19.8656 33 20.625V20.625C33 21.3844 32.3844 22 31.625 22H1.375ZM1.375 12.375C0.615609 12.375 0 11.7594 0 11V11C0 10.2406 0.615609 9.625 1.375 9.625H31.625C32.3844 9.625 33 10.2406 33 11V11C33 11.7594 32.3844 12.375 31.625 12.375H1.375ZM1.375 2.75C0.615609 2.75 0 2.13439 0 1.375V1.375C0 0.615608 0.615609 0 1.375 0H31.625C32.3844 0 33 0.615608 33 1.375V1.375C33 2.13439 32.3844 2.75 31.625 2.75H1.375Z"
        fill="currentColor" />
</svg>