<svg width="22" height="20" viewBox="0 0 22 20" fill="none" xmlns="http://www.w3.org/2000/svg">
<path d="M10.545 19.35L9.01594 17.9792C7.24087 16.3798 5.77337 15.0002 4.61342 13.8403C3.45347 12.6803 2.53079 11.639 1.84537 10.7163C1.15995 9.79363 0.681029 8.94564 0.408617 8.17234C0.136206 7.39905 0 6.60817 0 5.79973C0 4.14768 0.55361 2.76805 1.66083 1.66083C2.76805 0.55361 4.14768 0 5.79973 0C6.71362 0 7.58358 0.193324 8.40961 0.579973C9.23563 0.966621 9.94741 1.51144 10.545 2.21444C11.1425 1.51144 11.8543 0.966621 12.6803 0.579973C13.5063 0.193324 14.3763 0 15.2902 0C16.9422 0 18.3219 0.55361 19.4291 1.66083C20.5363 2.76805 21.0899 4.14768 21.0899 5.79973C21.0899 6.60817 20.9537 7.39905 20.6813 8.17234C20.4089 8.94564 19.93 9.79363 19.2446 10.7163C18.5591 11.639 17.6364 12.6803 16.4765 13.8403C15.3166 15.0002 13.849 16.3798 12.074 17.9792L10.545 19.35ZM10.545 16.5029C12.2322 14.9914 13.6206 13.6953 14.7102 12.6144C15.7999 11.5336 16.661 10.5933 17.2937 9.79363C17.9264 8.99397 18.3658 8.28219 18.6119 7.65828C18.8579 7.03437 18.9809 6.41485 18.9809 5.79973C18.9809 4.74523 18.6294 3.86649 17.9264 3.16349C17.2234 2.46049 16.3447 2.10899 15.2902 2.10899C14.4642 2.10899 13.6997 2.34186 12.9967 2.8076C12.2937 3.27333 11.8104 3.86648 11.5467 4.58706H9.54319C9.27956 3.86648 8.79625 3.27333 8.09326 2.8076C7.39026 2.34186 6.62575 2.10899 5.79973 2.10899C4.74523 2.10899 3.86649 2.46049 3.16349 3.16349C2.46049 3.86649 2.10899 4.74523 2.10899 5.79973C2.10899 6.41485 2.23202 7.03437 2.47807 7.65828C2.72411 8.28219 3.16349 8.99397 3.79619 9.79363C4.42888 10.5933 5.29005 11.5336 6.3797 12.6144C7.46935 13.6953 8.85777 14.9914 10.545 16.5029Z" fill="#212121"/>
</svg>
