<svg width="24" height="25" viewBox="0 0 24 25" fill="none" xmlns="http://www.w3.org/2000/svg">
<path d="M10.8 6.98507H13.2V9.38507H10.8V6.98507ZM10.8 11.7851H13.2V18.9851H10.8V11.7851ZM12 0.985073C5.376 0.985073 0 6.36107 0 12.9851C0 19.6091 5.376 24.9851 12 24.9851C18.624 24.9851 24 19.6091 24 12.9851C24 6.36107 18.624 0.985073 12 0.985073ZM12 22.5851C6.708 22.5851 2.4 18.2771 2.4 12.9851C2.4 7.69307 6.708 3.38507 12 3.38507C17.292 3.38507 21.6 7.69307 21.6 12.9851C21.6 18.2771 17.292 22.5851 12 22.5851Z" fill="#707070"/>
</svg>
