<svg width="28" height="26" viewBox="0 0 28 26" fill="none" xmlns="http://www.w3.org/2000/svg">
<path d="M12.6667 6.68293H15.3334V9.21951H12.6667V6.68293ZM12.6667 11.7561H15.3334V19.3659H12.6667V11.7561ZM14 0.341461C6.64002 0.341461 0.666687 6.02341 0.666687 13.0244C0.666687 20.0254 6.64002 25.7073 14 25.7073C21.36 25.7073 27.3334 20.0254 27.3334 13.0244C27.3334 6.02341 21.36 0.341461 14 0.341461ZM14 23.1707C8.12002 23.1707 3.33335 18.6176 3.33335 13.0244C3.33335 7.43122 8.12002 2.87805 14 2.87805C19.88 2.87805 24.6667 7.43122 24.6667 13.0244C24.6667 18.6176 19.88 23.1707 14 23.1707Z" fill="#3F4E4F"/>
</svg>
