<svg width="26" height="26" viewBox="0 0 26 26" fill="none" xmlns="http://www.w3.org/2000/svg">
<path d="M13 26C11.2233 26 9.54417 25.6587 7.9625 24.9762C6.38083 24.2937 4.99958 23.3621 3.81875 22.1812C2.63792 21.0004 1.70625 19.6192 1.02375 18.0375C0.34125 16.4558 0 14.7767 0 13C0 11.2017 0.352083 9.51167 1.05625 7.93C1.76042 6.34833 2.71375 4.9725 3.91625 3.8025C5.11875 2.6325 6.52167 1.70625 8.125 1.02375C9.72833 0.34125 11.44 0 13.26 0C14.9933 0 16.6292 0.297917 18.1675 0.89375C19.7058 1.48958 21.0546 2.31292 22.2137 3.36375C23.3729 4.41458 24.2937 5.66042 24.9762 7.10125C25.6587 8.54208 26 10.0967 26 11.765C26 14.2567 25.2417 16.1687 23.725 17.5012C22.2083 18.8337 20.3667 19.5 18.2 19.5H15.795C15.6 19.5 15.4646 19.5542 15.3887 19.6625C15.3129 19.7708 15.275 19.89 15.275 20.02C15.275 20.28 15.4375 20.6537 15.7625 21.1412C16.0875 21.6287 16.25 22.1867 16.25 22.815C16.25 23.8983 15.9521 24.7 15.3562 25.22C14.7604 25.74 13.975 26 13 26ZM5.85 14.3C6.41333 14.3 6.87917 14.1158 7.2475 13.7475C7.61583 13.3792 7.8 12.9133 7.8 12.35C7.8 11.7867 7.61583 11.3208 7.2475 10.9525C6.87917 10.5842 6.41333 10.4 5.85 10.4C5.28667 10.4 4.82083 10.5842 4.4525 10.9525C4.08417 11.3208 3.9 11.7867 3.9 12.35C3.9 12.9133 4.08417 13.3792 4.4525 13.7475C4.82083 14.1158 5.28667 14.3 5.85 14.3ZM9.75 9.1C10.3133 9.1 10.7792 8.91583 11.1475 8.5475C11.5158 8.17917 11.7 7.71333 11.7 7.15C11.7 6.58667 11.5158 6.12083 11.1475 5.7525C10.7792 5.38417 10.3133 5.2 9.75 5.2C9.18667 5.2 8.72083 5.38417 8.3525 5.7525C7.98417 6.12083 7.8 6.58667 7.8 7.15C7.8 7.71333 7.98417 8.17917 8.3525 8.5475C8.72083 8.91583 9.18667 9.1 9.75 9.1ZM16.25 9.1C16.8133 9.1 17.2792 8.91583 17.6475 8.5475C18.0158 8.17917 18.2 7.71333 18.2 7.15C18.2 6.58667 18.0158 6.12083 17.6475 5.7525C17.2792 5.38417 16.8133 5.2 16.25 5.2C15.6867 5.2 15.2208 5.38417 14.8525 5.7525C14.4842 6.12083 14.3 6.58667 14.3 7.15C14.3 7.71333 14.4842 8.17917 14.8525 8.5475C15.2208 8.91583 15.6867 9.1 16.25 9.1ZM20.15 14.3C20.7133 14.3 21.1792 14.1158 21.5475 13.7475C21.9158 13.3792 22.1 12.9133 22.1 12.35C22.1 11.7867 21.9158 11.3208 21.5475 10.9525C21.1792 10.5842 20.7133 10.4 20.15 10.4C19.5867 10.4 19.1208 10.5842 18.7525 10.9525C18.3842 11.3208 18.2 11.7867 18.2 12.35C18.2 12.9133 18.3842 13.3792 18.7525 13.7475C19.1208 14.1158 19.5867 14.3 20.15 14.3ZM13 23.4C13.195 23.4 13.3521 23.3458 13.4712 23.2375C13.5904 23.1292 13.65 22.9883 13.65 22.815C13.65 22.5117 13.4875 22.1542 13.1625 21.7425C12.8375 21.3308 12.675 20.7133 12.675 19.89C12.675 18.98 12.9892 18.2542 13.6175 17.7125C14.2458 17.1708 15.015 16.9 15.925 16.9H18.2C19.63 16.9 20.8542 16.4829 21.8725 15.6487C22.8908 14.8146 23.4 13.52 23.4 11.765C23.4 9.14333 22.3979 6.96042 20.3937 5.21625C18.3896 3.47208 16.0117 2.6 13.26 2.6C10.3133 2.6 7.8 3.6075 5.72 5.6225C3.64 7.6375 2.6 10.0967 2.6 13C2.6 15.8817 3.61292 18.3354 5.63875 20.3612C7.66458 22.3871 10.1183 23.4 13 23.4Z" fill="#212121"/>
</svg>
