<svg width="34" height="32" viewBox="0 0 34 32" fill="none" xmlns="http://www.w3.org/2000/svg">
<path d="M27.3178 12.0381L25.5444 9.80317L29.1756 5.53651L30.9489 7.66984L27.3178 12.0381ZM0 32V28.9524H33.7778V32H0ZM15.6222 6.09524V0H18.1556V6.09524H15.6222ZM6.46 11.9873L2.87111 7.56825L4.64444 5.43492L8.31778 9.85397L6.46 11.9873ZM7.93778 21.3333H25.84C25.3052 18.9291 24.2215 16.9735 22.5889 15.4667C20.9563 13.9598 19.0563 13.2063 16.8889 13.2063C14.7215 13.2063 12.8215 13.9598 11.1889 15.4667C9.55629 16.9735 8.47259 18.9291 7.93778 21.3333ZM5.06667 24.381C5.06667 20.419 6.2137 17.0582 8.50778 14.2984C10.8019 11.5386 13.5956 10.1587 16.8889 10.1587C20.1822 10.1587 22.9759 11.5386 25.27 14.2984C27.5641 17.0582 28.7111 20.419 28.7111 24.381H5.06667Z" fill="#212121"/>
</svg>
