<svg width="18" height="18" viewBox="0 0 18 18" fill="none" xmlns="http://www.w3.org/2000/svg">
<path d="M15 12.7293C14.24 12.7293 13.56 13.0005 13.04 13.4254L5.91 9.67353C5.96 9.4656 6 9.25766 6 9.04068C6 8.82371 5.96 8.61577 5.91 8.40784L12.96 4.69211C13.5 5.14415 14.21 5.42441 15 5.42441C15.7956 5.42441 16.5587 5.13866 17.1213 4.63002C17.6839 4.12139 18 3.43153 18 2.7122C18 1.99288 17.6839 1.30302 17.1213 0.794387C16.5587 0.285749 15.7956 0 15 0C14.2044 0 13.4413 0.285749 12.8787 0.794387C12.3161 1.30302 12 1.99288 12 2.7122C12 2.92918 12.04 3.13712 12.09 3.34505L5.04 7.06077C4.5 6.60874 3.79 6.32848 3 6.32848C2.20435 6.32848 1.44129 6.61423 0.87868 7.12286C0.316071 7.6315 0 8.32136 0 9.04068C0 9.76 0.316071 10.4499 0.87868 10.9585C1.44129 11.4671 2.20435 11.7529 3 11.7529C3.79 11.7529 4.5 11.4726 5.04 11.0206L12.16 14.7725C12.11 14.9623 12.08 15.1612 12.08 15.3692C12.08 16.8247 13.39 18 15 18C16.61 18 17.92 16.8247 17.92 15.3692C17.92 14.669 17.6124 13.9976 17.0648 13.5025C16.5171 13.0074 15.7744 12.7293 15 12.7293Z" fill="#212121"/>
</svg>
