<svg width="25" height="23" viewBox="0 0 25 23" fill="none" xmlns="http://www.w3.org/2000/svg">
    <g clip-path="url(#clip0_121_15)">
        <path
            d="M10.616 6.61364L9.81294 7.25258C9.68333 7.3557 9.49919 7.35386 9.37167 7.24817L8.71932 6.70748C8.29834 6.35856 7.66088 6.65369 7.65458 7.20043L7.51203 19.5548C7.5098 19.7481 7.3513 19.903 7.15801 19.9008L5.90809 19.8864C5.71481 19.8841 5.55993 19.7256 5.56216 19.5323L5.70471 7.17794C5.71101 6.63119 5.08054 6.32143 4.65162 6.66055L3.98696 7.18604C3.85704 7.28875 3.67291 7.28635 3.54572 7.18026L2.75764 6.52297C2.58735 6.38094 2.59038 6.11837 2.7639 5.9803L6.50688 3.00221C6.6368 2.89884 6.82147 2.90097 6.94897 3.00731L10.6222 6.07098C10.7925 6.21301 10.7895 6.47558 10.616 6.61364Z"
            fill="currentColor" />
        <path
            d="M13.9765 16.3315C13.7943 16.1805 13.5312 16.1779 13.3461 16.3252L12.5431 16.9641C12.2952 17.1613 12.2908 17.5364 12.5341 17.7393L16.2074 20.803C16.3895 20.9549 16.6533 20.958 16.8389 20.8103L20.5819 17.8322C20.8298 17.635 20.8341 17.2599 20.5909 17.057L19.8028 16.3997C19.6211 16.2481 19.358 16.2447 19.1724 16.3914L18.5078 16.9169C18.1778 17.1778 17.6928 16.9395 17.6977 16.5189L17.8403 4.16452C17.8434 3.88839 17.6222 3.66197 17.3461 3.65878L16.0961 3.64436C15.82 3.64117 15.5936 3.86243 15.5904 4.13856L15.4478 16.493C15.443 16.9135 14.9526 17.1406 14.6288 16.8722L13.9765 16.3315Z"
            fill="currentColor" />
    </g>
    <defs>
        <clipPath id="clip0_121_15">
            <rect width="22" height="24" fill="white" transform="translate(24.2523 1) rotate(90.6611)" />
        </clipPath>
    </defs>
</svg>