<svg width="140" height="56" viewBox="0 0 140 56" fill="none" xmlns="http://www.w3.org/2000/svg">
<path d="M24.3574 38.9238L20.498 39.5078C20.2272 38.6445 19.9564 37.7897 19.6855 36.9434C19.4147 36.0801 19.1523 35.2168 18.8984 34.3535L12.6523 34.582L11.8652 37.959H7.95508C8.19206 35.0814 8.4375 32.2207 8.69141 29.377C8.94531 26.5332 9.19076 23.681 9.42773 20.8203C10.6465 20.6172 11.8568 20.4479 13.0586 20.3125C14.2773 20.1771 15.5046 20.1094 16.7402 20.1094C18.2467 20.1094 19.7533 20.1348 21.2598 20.1855C21.5306 21.946 21.793 23.7064 22.0469 25.4668C22.3177 27.2103 22.597 28.9622 22.8848 30.7227C23.0879 32.1107 23.3079 33.4818 23.5449 34.8359C23.7988 36.1901 24.0697 37.5527 24.3574 38.9238ZM18.0098 30.9004C17.9928 30.748 17.9505 30.4688 17.8828 30.0625C17.8151 29.6393 17.7389 29.1992 17.6543 28.7422C17.5697 28.2682 17.4681 27.8451 17.3496 27.4727C17.248 27.0833 17.1465 26.8548 17.0449 26.7871C17.0111 26.7702 16.9264 26.7533 16.791 26.7363C16.6725 26.7194 16.5371 26.7025 16.3848 26.6855C16.2493 26.6686 16.1139 26.6602 15.9785 26.6602C15.8431 26.6602 15.75 26.6602 15.6992 26.6602C15.6146 26.6602 15.4961 26.6602 15.3438 26.6602C15.2083 26.6602 15.056 26.6686 14.8867 26.6855C14.7344 26.6855 14.582 26.7025 14.4297 26.7363C14.2943 26.7702 14.2012 26.8125 14.1504 26.8633C14.1165 26.8802 14.0742 26.9902 14.0234 27.1934C13.9727 27.3965 13.9049 27.6504 13.8203 27.9551C13.7526 28.2428 13.6764 28.556 13.5918 28.8945C13.5241 29.2331 13.4564 29.5547 13.3887 29.8594C13.321 30.1641 13.2617 30.4264 13.2109 30.6465C13.1771 30.8665 13.1517 30.9935 13.1348 31.0273L18.0098 30.9004ZM46.8393 39.4316C46.5177 39.4147 46.2045 39.3893 45.8998 39.3555C45.6459 39.3216 45.392 39.2962 45.1381 39.2793C44.9011 39.2624 44.7234 39.2539 44.6049 39.2539C43.9448 39.2539 43.2846 39.2624 42.6245 39.2793C41.9643 39.3132 41.3126 39.3639 40.6694 39.4316C40.6863 38.7207 40.6948 38.0267 40.6948 37.3496C40.7117 36.6556 40.7202 35.9531 40.7202 35.2422C40.7202 33.9727 40.6948 32.7116 40.644 31.459C40.6101 30.2064 40.5763 28.9538 40.5424 27.7012L35.2104 39.7617C34.4317 37.6458 33.5939 35.5723 32.6967 33.541C31.8165 31.4928 30.894 29.4531 29.9291 27.4219L30.3354 39.9648C30.1492 39.9648 29.9545 39.9564 29.7514 39.9395C29.5652 39.9395 29.3705 39.9395 29.1674 39.9395C28.5242 39.9395 27.8894 39.9648 27.2631 40.0156C26.6537 40.0664 26.0359 40.1172 25.4096 40.168C25.4942 38.5938 25.5789 37.028 25.6635 35.4707C25.7482 33.9134 25.7905 32.3477 25.7905 30.7734C25.7905 28.9284 25.7735 27.0918 25.7397 25.2637C25.7228 23.4355 25.7058 21.599 25.6889 19.7539C26.9077 19.7539 28.0926 19.7201 29.2436 19.6523C30.4116 19.5846 31.6049 19.4915 32.8237 19.373C33.2299 20.7272 33.6446 22.0729 34.0678 23.4102C34.5079 24.7305 34.9734 26.0508 35.4643 27.3711C35.989 26.1185 36.5815 24.8913 37.2416 23.6895C37.9187 22.4876 38.6043 21.2943 39.2983 20.1094C40.4493 20.0755 41.5834 20.0417 42.7006 20.0078C43.8347 19.974 44.9773 19.9486 46.1284 19.9316C46.1791 21.4551 46.2384 22.9616 46.3061 24.4512C46.3907 25.9408 46.4669 27.4473 46.5346 28.9707C46.5854 30.1725 46.6277 31.3743 46.6616 32.5762C46.7123 33.778 46.7547 34.9714 46.7885 36.1562L46.8393 38.2891V39.4316ZM65.4618 38.9238L61.6024 39.5078C61.3316 38.6445 61.0608 37.7897 60.7899 36.9434C60.5191 36.0801 60.2567 35.2168 60.0028 34.3535L53.7567 34.582L52.9696 37.959H49.0595C49.2964 35.0814 49.5419 32.2207 49.7958 29.377C50.0497 26.5332 50.2951 23.681 50.5321 20.8203C51.7509 20.6172 52.9611 20.4479 54.163 20.3125C55.3817 20.1771 56.6089 20.1094 57.8446 20.1094C59.3511 20.1094 60.8576 20.1348 62.3641 20.1855C62.635 21.946 62.8973 23.7064 63.1512 25.4668C63.4221 27.2103 63.7014 28.9622 63.9891 30.7227C64.1923 32.1107 64.4123 33.4818 64.6493 34.8359C64.9032 36.1901 65.174 37.5527 65.4618 38.9238ZM59.1141 30.9004C59.0972 30.748 59.0549 30.4688 58.9872 30.0625C58.9195 29.6393 58.8433 29.1992 58.7587 28.7422C58.674 28.2682 58.5725 27.8451 58.454 27.4727C58.3524 27.0833 58.2509 26.8548 58.1493 26.7871C58.1154 26.7702 58.0308 26.7533 57.8954 26.7363C57.7769 26.7194 57.6415 26.7025 57.4891 26.6855C57.3537 26.6686 57.2183 26.6602 57.0829 26.6602C56.9475 26.6602 56.8544 26.6602 56.8036 26.6602C56.719 26.6602 56.6005 26.6602 56.4481 26.6602C56.3127 26.6602 56.1604 26.6686 55.9911 26.6855C55.8387 26.6855 55.6864 26.7025 55.5341 26.7363C55.3986 26.7702 55.3055 26.8125 55.2548 26.8633C55.2209 26.8802 55.1786 26.9902 55.1278 27.1934C55.077 27.3965 55.0093 27.6504 54.9247 27.9551C54.857 28.2428 54.7808 28.556 54.6962 28.8945C54.6285 29.2331 54.5608 29.5547 54.493 29.8594C54.4253 30.1641 54.3661 30.4264 54.3153 30.6465C54.2815 30.8665 54.2561 30.9935 54.2391 31.0273L59.1141 30.9004ZM80.4027 24.2227V26L75.5023 26.2539C75.4346 27.2357 75.3838 28.209 75.3499 29.1738C75.3161 30.1387 75.2991 31.1035 75.2991 32.0684C75.2991 33.2533 75.2653 34.4382 75.1976 35.623C75.1468 36.791 75.0791 37.959 74.9945 39.127C74.3851 39.1608 73.7757 39.1862 73.1663 39.2031C72.557 39.237 71.9476 39.2539 71.3382 39.2539C71.1182 39.2539 70.8981 39.2454 70.678 39.2285C70.4749 39.2285 70.2718 39.2285 70.0687 39.2285C70.1025 38.196 70.1279 37.1719 70.1448 36.1562C70.1787 35.1237 70.1956 34.0996 70.1956 33.084C70.1956 32.0684 70.1702 31.0527 70.1195 30.0371C70.0687 29.0046 70.0094 27.972 69.9417 26.9395C69.4508 26.9564 68.9515 26.9733 68.4437 26.9902C67.9528 27.0072 67.4534 27.0156 66.9456 27.0156C66.6579 27.0156 66.3701 27.0156 66.0823 27.0156C65.8115 27.0156 65.5322 27.0072 65.2445 26.9902C65.1937 25.7376 65.1598 24.4935 65.1429 23.2578C65.126 22.0221 65.109 20.7865 65.0921 19.5508C67.6312 19.6016 70.1533 19.6777 72.6585 19.7793C75.1637 19.8639 77.6774 19.9401 80.1995 20.0078C80.2672 20.7357 80.318 21.4466 80.3519 22.1406C80.3857 22.8177 80.4027 23.5117 80.4027 24.2227ZM95.9021 23.5371C94.2433 23.6217 92.5929 23.7148 90.9509 23.8164C89.3259 23.901 87.684 24.0111 86.0252 24.1465L85.9744 26.1523L92.5252 25.7715C92.6098 26.347 92.669 26.9141 92.7029 27.4727C92.7537 28.0312 92.7791 28.5983 92.7791 29.1738C92.7791 29.4108 92.7706 29.6562 92.7537 29.9102C92.7537 30.1641 92.7537 30.4095 92.7537 30.6465L86.6599 31.7383L87.0408 34.8867C88.3272 34.8021 89.6052 34.6836 90.8748 34.5312C92.1612 34.362 93.4561 34.2181 94.7595 34.0996C94.878 34.946 94.9965 35.8008 95.115 36.6641C95.2335 37.5104 95.4028 38.3398 95.6228 39.1523C93.2192 39.1354 90.8324 39.1354 88.4627 39.1523C86.0929 39.1862 83.7061 39.2031 81.3025 39.2031C81.3533 37.2227 81.4125 35.2507 81.4802 33.2871C81.5479 31.3236 81.5818 29.3431 81.5818 27.3457V26.8633C81.5818 25.7122 81.5649 24.5697 81.531 23.4355C81.4972 22.2845 81.4633 21.125 81.4295 19.957C82.7667 19.974 84.0955 19.9824 85.4158 19.9824C86.753 19.9655 88.0987 19.957 89.4529 19.957C90.4854 19.957 91.5095 19.9824 92.5252 20.0332C93.5577 20.0671 94.5903 20.1094 95.6228 20.1602L95.9021 23.5371ZM115.997 38.873C115.185 39.0592 114.372 39.2285 113.56 39.3809C112.764 39.5501 111.952 39.7025 111.122 39.8379C110.107 38.2975 109.099 36.7826 108.101 35.293C107.119 33.7865 106.095 32.2884 105.029 30.7988L102.312 33.4395L102.058 39.0762C101.668 39.0592 101.279 39.0423 100.89 39.0254C100.517 39.0254 100.145 39.0254 99.7727 39.0254C99.4172 39.0254 99.0702 39.0339 98.7316 39.0508C98.3931 39.0677 98.0546 39.1016 97.716 39.1523C97.5129 37.5951 97.3182 36.0462 97.132 34.5059C96.9628 32.9486 96.8104 31.3828 96.675 29.8086C96.5396 28.2344 96.4296 26.6686 96.3449 25.1113C96.2772 23.5371 96.2095 21.9629 96.1418 20.3887C97.4113 20.4225 98.6639 20.4479 99.8996 20.4648C101.152 20.4648 102.413 20.4818 103.683 20.5156L103.53 26.4062C104.445 25.4583 105.308 24.4935 106.12 23.5117C106.933 22.5299 107.771 21.5312 108.634 20.5156C109.446 20.4648 110.267 20.4141 111.097 20.3633C111.926 20.2956 112.747 20.2279 113.56 20.1602L113.458 22.0391L108.075 27.6504C109.362 29.5632 110.657 31.4421 111.96 33.2871C113.28 35.1322 114.626 36.9941 115.997 38.873ZM131.624 38.9238L127.764 39.5078C127.493 38.6445 127.223 37.7897 126.952 36.9434C126.681 36.0801 126.419 35.2168 126.165 34.3535L119.919 34.582L119.131 37.959H115.221C115.458 35.0814 115.704 32.2207 115.958 29.377C116.212 26.5332 116.457 23.681 116.694 20.8203C117.913 20.6172 119.123 20.4479 120.325 20.3125C121.544 20.1771 122.771 20.1094 124.006 20.1094C125.513 20.1094 127.02 20.1348 128.526 20.1855C128.797 21.946 129.059 23.7064 129.313 25.4668C129.584 27.2103 129.863 28.9622 130.151 30.7227C130.354 32.1107 130.574 33.4818 130.811 34.8359C131.065 36.1901 131.336 37.5527 131.624 38.9238ZM125.276 30.9004C125.259 30.748 125.217 30.4688 125.149 30.0625C125.081 29.6393 125.005 29.1992 124.921 28.7422C124.836 28.2682 124.734 27.8451 124.616 27.4727C124.514 27.0833 124.413 26.8548 124.311 26.7871C124.277 26.7702 124.193 26.7533 124.057 26.7363C123.939 26.7194 123.803 26.7025 123.651 26.6855C123.516 26.6686 123.38 26.6602 123.245 26.6602C123.109 26.6602 123.016 26.6602 122.965 26.6602C122.881 26.6602 122.762 26.6602 122.61 26.6602C122.475 26.6602 122.322 26.6686 122.153 26.6855C122.001 26.6855 121.848 26.7025 121.696 26.7363C121.561 26.7702 121.467 26.8125 121.417 26.8633C121.383 26.8802 121.34 26.9902 121.29 27.1934C121.239 27.3965 121.171 27.6504 121.087 27.9551C121.019 28.2428 120.943 28.556 120.858 28.8945C120.79 29.2331 120.723 29.5547 120.655 29.8594C120.587 30.1641 120.528 30.4264 120.477 30.6465C120.443 30.8665 120.418 30.9935 120.401 31.0273L125.276 30.9004Z" fill="#000000"/>
</svg>
