<svg width="35" height="36" viewBox="0 0 35 36" fill="none" xmlns="http://www.w3.org/2000/svg">
    <path
        d="M23.1786 29.7C21.8558 29.7 20.7407 29.2773 19.8333 28.4318C18.9259 27.5863 18.4722 26.5513 18.4722 25.3268C18.4722 24.1023 18.9289 23.07 19.8422 22.23C20.7556 21.39 21.8736 20.97 23.1964 20.97C24.5192 20.97 25.6343 21.3927 26.5417 22.2382C27.4491 23.0837 27.9028 24.1187 27.9028 25.3432C27.9028 26.5677 27.4461 27.6 26.5328 28.44C25.6194 29.28 24.5014 29.7 23.1786 29.7ZM2.91667 36C2.13889 36 1.45833 35.73 0.875 35.19C0.291667 34.65 0 34.02 0 33.3V5.4C0 4.68 0.291667 4.05 0.875 3.51C1.45833 2.97 2.13889 2.7 2.91667 2.7H6.07639V0H9.23611V2.7H25.7639V0H28.9236V2.7H32.0833C32.8611 2.7 33.5417 2.97 34.125 3.51C34.7083 4.05 35 4.68 35 5.4V33.3C35 34.02 34.7083 34.65 34.125 35.19C33.5417 35.73 32.8611 36 32.0833 36H2.91667ZM2.91667 33.3H32.0833V13.95H2.91667V33.3ZM2.91667 11.25H32.0833V5.4H2.91667V11.25Z"
        fill="#231007" />
</svg>