<svg width="24" height="24" viewBox="0 0 24 24" fill="none" xmlns="http://www.w3.org/2000/svg">
    <g clip-path="url(#clip0_121_12)">
        <path
            d="M3.5 18C3.22386 18 3 18.2239 3 18.5V19.5C3 19.7761 3.22386 20 3.5 20H8.5C8.77614 20 9 19.7761 9 19.5V18.5C9 18.2239 8.77614 18 8.5 18H3.5ZM3.5 4C3.22386 4 3 4.22386 3 4.5V5.5C3 5.77614 3.22386 6 3.5 6H12.5C12.7761 6 13 5.77614 13 5.5V4.5C13 4.22386 12.7761 4 12.5 4H3.5ZM12.5 22C12.7761 22 13 21.7761 13 21.5V20.5C13 20.2239 13.2239 20 13.5 20H20.5C20.7761 20 21 19.7761 21 19.5V18.5C21 18.2239 20.7761 18 20.5 18H13.5C13.2239 18 13 17.7761 13 17.5V16.5C13 16.2239 12.7761 16 12.5 16H11.5C11.2239 16 11 16.2239 11 16.5V21.5C11 21.7761 11.2239 22 11.5 22H12.5ZM7.5 8C7.22386 8 7 8.22386 7 8.5V10.5C7 10.7761 6.77614 11 6.5 11H3.5C3.22386 11 3 11.2239 3 11.5V12.5C3 12.7761 3.22386 13 3.5 13H6.5C6.77614 13 7 13.2239 7 13.5V14.5C7 14.7761 7.22386 15 7.5 15H8.5C8.77614 15 9 14.7761 9 14.5V8.5C9 8.22386 8.77614 8 8.5 8H7.5ZM20.5 13C20.7761 13 21 12.7761 21 12.5V11.5C21 11.2239 20.7761 11 20.5 11H11.5C11.2239 11 11 11.2239 11 11.5V12.5C11 12.7761 11.2239 13 11.5 13H20.5ZM15 7.5C15 7.77614 15.2239 8 15.5 8H16.5C16.7761 8 17 7.77614 17 7.5V6.5C17 6.22386 17.2239 6 17.5 6H20.5C20.7761 6 21 5.77614 21 5.5V4.5C21 4.22386 20.7761 4 20.5 4H17.5C17.2239 4 17 3.77614 17 3.5V2.5C17 2.22386 16.7761 2 16.5 2H15.5C15.2239 2 15 2.22386 15 2.5V7.5Z"
            fill="currentColor" />
    </g>
    <defs>
        <clipPath id="clip0_121_12">
            <rect width="24" height="24" fill="white" />
        </clipPath>
    </defs>
</svg>