<svg width="22" height="22" viewBox="0 0 22 22" fill="none" xmlns="http://www.w3.org/2000/svg">
<path d="M10.875 21.5C10.3227 21.5 9.87499 21.0523 9.87499 20.5V12.125H1.5C0.947715 12.125 0.5 11.6773 0.5 11.125V10.875C0.5 10.3227 0.947715 9.87499 1.5 9.87499H9.87499V1.5C9.87499 0.947715 10.3227 0.5 10.875 0.5H11.125C11.6773 0.5 12.125 0.947715 12.125 1.5V9.87499H20.5C21.0523 9.87499 21.5 10.3227 21.5 10.875V11.125C21.5 11.6773 21.0523 12.125 20.5 12.125H12.125V20.5C12.125 21.0523 11.6773 21.5 11.125 21.5H10.875Z" fill="black"/>
</svg>
