<svg width="38" height="36" viewBox="0 0 38 36" fill="none" xmlns="http://www.w3.org/2000/svg">
    <path
        d="M30.7325 13.5429L28.7375 11.0286L32.8225 6.22857L34.8175 8.62857L30.7325 13.5429ZM0 36V32.5714H38V36H0ZM17.575 6.85714V0H20.425V6.85714H17.575ZM7.2675 13.4857L3.23 8.51429L5.225 6.11429L9.3575 11.0857L7.2675 13.4857ZM8.93 24H29.07C28.4683 21.2952 27.2492 19.0952 25.4125 17.4C23.5758 15.7048 21.4383 14.8571 19 14.8571C16.5617 14.8571 14.4242 15.7048 12.5875 17.4C10.7508 19.0952 9.53167 21.2952 8.93 24ZM5.7 27.4286C5.7 22.9714 6.99042 19.1905 9.57125 16.0857C12.1521 12.981 15.295 11.4286 19 11.4286C22.705 11.4286 25.8479 12.981 28.4287 16.0857C31.0096 19.1905 32.3 22.9714 32.3 27.4286H5.7Z"
        fill="#121717" />
</svg>